<?xml version="1.0" encoding="UTF-8" standalone="no"?>
<!DOCTYPE svg PUBLIC "-//W3C//DTD SVG 1.1//EN" "http://www.w3.org/Graphics/SVG/1.1/DTD/svg11.dtd">
<!-- Page 1 -->
<svg x="0" y="0" width="813" height="197" viewBox="0 0 813 197" version="1.1" xmlns="http://www.w3.org/2000/svg" xmlns:xlink="http://www.w3.org/1999/xlink" style="display: block;margin-left: auto;margin-right: auto;">
<defs>
<clipPath id="c0_1"><path d="M-293.9,707V-117.9H1172.7V707Z"/></clipPath>

<style type="text/css"><![CDATA[
text { white-space: pre; }
path, image { pointer-events: none; }
text::-moz-selection {
	color: transparent;
	background: rgba(0, 106, 173, 0.4);
}
text::selection {
	color: transparent;
	background: rgba(0, 106, 173, 0.4);
}

.s1_1{
font-size: 146.67px;
font-family: HelveticaNeue-Thin_g;
fill: TRANSPARENT;
}

.g0_1{
fill: #FFFFFF;
}
.g1_1{
fill: #24CF87;
}

]]></style>

</defs>
<path d="M0,0 L0,197 L813,197 L813,0 Z " fill="#FFFFFF" stroke="none"/>
<path d="M-293.9,707H1172.3V-117.9H-293.9V707Z" class="g0_1"/>
<path d="M-293.9,707H1172.7V-117.9H-293.9V707Z" class="g0_1"/>
<path d="M-2.4,1.8c0,-2.4,2,-4.4,4.4,-4.4H812.5c2.5,0,4.5,2,4.5,4.4V195.7c0,2.5,-2,4.6,-4.5,4.6H2c-2.4,0,-4.4,-2.1,-4.4,-4.6Z" class="g1_1"/>
<g clip-path="url(#c0_1)">
<g fill="#FFFFFF">
<use xlink:href="#f0_7" transform="matrix(96,0,0,96,200.8,150.4)"/>
<use xlink:href="#f0_9" transform="matrix(96,0,0,96,277,150.4)"/>
<use xlink:href="#f0_8" transform="matrix(96,0,0,96,301.9,150.4)"/>
<use xlink:href="#f0_a" transform="matrix(96,0,0,96,326.7,150.4)"/>
<use xlink:href="#f0_5" transform="matrix(96,0,0,96,405.6,150.4)"/>
<use xlink:href="#f0_6" transform="matrix(96,0,0,96,488.1,150.4)"/>
<use xlink:href="#f0_b" transform="matrix(96,0,0,96,561.6,150.4)"/>
<use xlink:href="#f0_3" transform="matrix(96,0,0,96,673.1,150.4)"/>
<use xlink:href="#f0_4" transform="matrix(96,0,0,96,760.1,150.4)"/>
</g>
</g>
<text x="200" y="150" dx="0,0.1,0.2,0.2,0.1,-4.2,0.2,0.1,0.1,0.1" class="s1_1">elioPas AI</text>
<path fill-rule="evenodd" d="M180.1,151v1.3h-1Zm0,-102.9l.7,.9c9.8,14.4,15.5,31.8,15.5,50.6c0,18.7,-5.7,36.1,-15.5,50.6l-.7,.8Zm-.4,-.5h.4v.5ZM105.7,9c25,0,47.7,10.2,64.1,26.6l9.9,12h-6V95.1H106.8V47.6h-6.5V152.3h6.5V100.7h66.9v51.6h5.4l-9.3,11.3c-16.4,16.4,-39.1,26.5,-64.1,26.5C55.8,190.1,15.2,149.6,15.2,99.6C15.2,49.6,55.8,9,105.7,9Z" class="g0_1"/>

<defs>
<path d="M684,436c0,0,-3,64,-21,121c0,0,-18,57,-54,101c0,0,-36,43,-87,69c0,0,-51,26,-117,26c0,0,-70,0,-124,-27c0,0,-53,-26,-90,-70c0,0,-36,-43,-56,-101c0,0,-20,-58,-25,-119ZM396,-18c0,0,-87,0,-152,31c0,0,-65,31,-109,85c0,0,-43,55,-65,129c0,0,-21,74,-21,159c0,0,0,83,22,159c0,0,22,75,67,133c0,0,44,57,110,91c0,0,67,35,157,35c0,0,82,0,146,-31c0,0,63,-30,106,-83c0,0,43,-53,65,-122c0,0,22,-70,22,-149c0,0,0,-8,-1,-18c0,0,-1,-10,-1,-16H109v-9c0,0,0,-69,18,-131c0,0,18,-63,54,-110c0,0,36,-48,90,-75c0,0,55,-28,126,-28c0,0,118,0,187,62c0,0,69,62,95,172h57C736,266,710,128,624,55c0,0,-86,-73,-228,-73Z" id="f0_7" transform="scale(0.001,-0.001)"/>

<path d="M100,0V1091h57V0Z" id="f0_9" transform="scale(0.001,-0.001)"/>

<path d="M100,0V785h57V0Zm0,934v157h57V934Z" id="f0_8" transform="scale(0.001,-0.001)"/>

<path d="M409,32c0,0,74,0,130,30c0,0,57,30,95,80c0,0,38,51,58,115c0,0,20,65,20,136c0,0,0,70,-20,135c0,0,-20,65,-58,115c0,0,-38,50,-95,80c0,0,-56,30,-130,30c0,0,-73,0,-130,-30c0,0,-56,-30,-94,-80c0,0,-39,-50,-59,-115c0,0,-19,-65,-19,-135c0,0,0,-71,19,-136c0,0,20,-64,59,-115c0,0,38,-50,94,-80c0,0,57,-30,130,-30Zm0,-50c0,0,-87,0,-154,32c0,0,-67,33,-113,89c0,0,-46,56,-69,131c0,0,-24,75,-24,159c0,0,0,84,24,158c0,0,23,74,69,130c0,0,46,57,113,90c0,0,67,33,154,33c0,0,87,0,154,-33c0,0,68,-33,113,-90c0,0,46,-56,70,-130c0,0,24,-74,24,-158c0,0,0,-84,-24,-159c0,0,-24,-75,-70,-131c0,0,-45,-56,-113,-89c0,0,-67,-32,-154,-32Z" id="f0_a" transform="scale(0.001,-0.001)"/>

<path d="M547,544c0,0,73,0,125,22c0,0,51,22,81,57c0,0,31,35,45,78c0,0,14,43,14,86c0,0,0,31,-10,73c0,0,-9,42,-36,81c0,0,-28,39,-78,66c0,0,-49,27,-132,27H163V544ZM96,0V1091H561c0,0,46,0,102,-10c0,0,55,-11,104,-44c0,0,48,-33,80,-93c0,0,32,-61,32,-158c0,0,0,-144,-89,-222c0,0,-88,-78,-254,-78H163V0Z" id="f0_5" transform="scale(0.001,-0.001)"/>

<path d="M313,32c0,0,99,0,157,36c0,0,58,36,89,83c0,0,30,46,39,90c0,0,8,43,8,58V446c0,0,-21,-26,-65,-35c0,0,-43,-9,-97,-14l-98,-9c0,0,-42,-5,-85,-13c0,0,-43,-8,-77,-28c0,0,-35,-20,-56,-54c0,0,-21,-35,-21,-90c0,0,0,-87,55,-129c0,0,55,-42,151,-42Zm-1,-50c0,0,-126,0,-194,54c0,0,-69,54,-69,167c0,0,0,69,27,112c0,0,28,44,70,69c0,0,42,25,93,36c0,0,51,11,99,15l90,8c0,0,63,4,98,14c0,0,36,10,55,28c0,0,18,17,23,45c0,0,4,27,4,69c0,0,0,32,-12,59c0,0,-12,28,-38,49c0,0,-26,21,-68,34c0,0,-41,12,-101,12c0,0,-105,0,-170,-52c0,0,-65,-52,-71,-157H90c0,0,6,130,83,195c0,0,77,65,219,65c0,0,142,0,207,-56c0,0,65,-56,65,-146V145c0,0,0,-17,1,-34c0,0,0,-16,5,-30c0,0,5,-14,15,-22c0,0,11,-8,31,-8c0,0,15,0,43,4V6C759,6,736,0,711,0c0,0,-35,0,-55,9c0,0,-21,9,-32,25c0,0,-10,15,-14,35c0,0,-4,21,-4,45v41l-3,1c0,0,-14,-36,-40,-67c0,0,-25,-31,-63,-56C500,33,463,9,415,-4c0,0,-47,-14,-103,-14Z" id="f0_6" transform="scale(0.001,-0.001)"/>

<path d="M372,-18c0,0,-67,0,-124,18c0,0,-57,17,-100,52c0,0,-43,36,-67,88c0,0,-25,52,-26,121h57c0,0,4,-55,25,-97c0,0,21,-42,56,-71c0,0,34,-30,80,-45c0,0,46,-16,100,-16c0,0,38,0,81,7c0,0,44,7,81,25c0,0,38,19,62,52c0,0,25,32,25,83c0,0,0,65,-40,99c0,0,-40,34,-100,52c0,0,-60,18,-130,30c0,0,-70,11,-130,34c0,0,-60,23,-100,65c0,0,-40,42,-40,123c0,0,0,58,26,97c0,0,26,39,67,62c0,0,40,23,91,33c0,0,50,10,101,10c0,0,61,0,114,-14c0,0,54,-14,93,-44c0,0,39,-31,61,-78c0,0,22,-47,22,-115H599c0,0,0,54,-17,92c0,0,-18,38,-49,61c0,0,-32,24,-75,35c0,0,-42,12,-91,12c0,0,-40,0,-81,-8c0,0,-40,-7,-73,-26c0,0,-32,-18,-52,-47c0,0,-21,-29,-21,-70c0,0,0,-48,23,-77c0,0,23,-29,60,-46c0,0,38,-18,84,-29c0,0,47,-10,94,-21c0,0,58,-11,110,-25c0,0,51,-15,88,-40c0,0,38,-25,59,-65c0,0,22,-40,22,-101c0,0,0,-64,-29,-105c0,0,-29,-41,-74,-67C577,26,533,1,479,-8c0,0,-55,-10,-107,-10Z" id="f0_b" transform="scale(0.001,-0.001)"/>

<path d="M694,408L460,1025h-3L214,408ZM-17,0L420,1091h73L924,0H853L715,350H193L53,0Z" id="f0_3" transform="scale(0.001,-0.001)"/>

<path d="M96,0V1091h67V0Z" id="f0_4" transform="scale(0.001,-0.001)"/>


</defs>

<!-- Any embedded fonts defined here -->
<style type="text/css"><![CDATA[

@font-face {
	font-family: HelveticaNeue-Thin_g;
	src: url("fonts/HelveticaNeue-Thin_g.woff") format("woff");
}

]]></style>

</svg>